<svg width="24" height="24" viewBox="0 0 24 24" fill="none" xmlns="http://www.w3.org/2000/svg">
<path d="M8 7C7.44772 7 7 6.55228 7 6V5C7 4.44772 7.44772 4 8 4C8.55228 4 9 4.44772 9 5V6C9 6.55228 8.55228 7 8 7Z" fill="#1E2530"/>
<path d="M7 14C7 14.5523 7.44772 15 8 15C8.55228 15 9 14.5523 9 14V12C9 11.4477 8.55228 11 8 11C7.44772 11 7 11.4477 7 12V14Z" fill="#1E2530"/>
<path d="M3 5C3 2.79086 4.79086 1 7 1H17C19.2091 1 21 2.79086 21 5V19C21 21.2091 19.2091 23 17 23H7C4.79086 23 3 21.2091 3 19V5ZM7 3C5.89543 3 5 3.89543 5 5V19C5 20.1046 5.89543 21 7 21H17C18.1046 21 19 20.1046 19 19V5C19 3.89543 18.1046 3 17 3H7Z" fill="#1E2530"/>
<path fill-rule="evenodd" clip-rule="evenodd" d="M18 9C18 9.55229 17.5523 10 17 10H4C3.44771 10 3 9.55229 3 9C3 8.44772 3.44771 8 4 8H17C17.5523 8 18 8.44772 18 9Z" fill="#1E2530"/>
</svg>
