<svg width="20" height="20" viewBox="0 0 20 20" fill="none" xmlns="http://www.w3.org/2000/svg">
<path d="M10.7272 17.69C10.3327 18.1071 9.66871 18.1071 9.27418 17.69L2.35665 10.3606C0.547703 8.44799 0.547702 5.34705 2.35665 3.43445C4.16559 1.52185 7.09848 1.52185 8.90742 3.43445L9.27506 3.82315C9.66959 4.24029 10.3336 4.24029 10.7281 3.82315L11.0925 3.43788C12.9014 1.52528 15.8343 1.52528 17.6433 3.43788C19.4522 5.35048 19.4522 8.45142 17.6433 10.364L10.7272 17.69ZM16.1902 8.98973C17.2699 7.8482 17.2699 5.9537 16.1902 4.81217C15.1703 3.73385 13.5654 3.73385 12.5455 4.81217L12.1811 5.19745C10.9975 6.44886 9.00562 6.44886 7.82202 5.19745L7.45438 4.80874C6.4345 3.73042 4.82957 3.73042 3.80969 4.80874C2.73002 5.95027 2.73002 7.84477 3.80969 8.9863L10.0009 15.5459L16.1902 8.98973Z" fill="#1E2530"/>
</svg>
