<svg width="72" height="24" viewBox="0 0 72 24" fill="none" xmlns="http://www.w3.org/2000/svg">
<path d="M7.38513 17.9559C2.62781 17.9559 0 14.8261 0 10.1964C0 5.54687 2.84349 2.39844 7.47314 2.39844C9.32128 2.39844 10.8657 2.82856 12.0582 3.50535L11.5599 6.74427C10.4282 6.02534 9.10313 5.46134 7.56239 5.46134C4.97424 5.46134 3.71736 7.37148 3.71736 10.1766C3.71736 13.0015 5.01639 14.9773 7.60329 14.9773C8.4313 14.9773 9.01884 14.8261 9.62497 14.4988V11.8276H7.01575L6.5844 9.06965H12.8614V16.3693C11.2959 17.3919 9.45143 17.9559 7.38513 17.9559Z" fill="black"/>
<path d="M19.9875 17.8464C17.9696 17.8464 16.2739 17.4113 14.7505 16.7171L15.2934 13.5439C16.8366 14.367 18.5521 14.9347 20.0532 14.9347C21.118 14.9347 21.858 14.4798 21.858 13.5873C21.858 12.7395 21.4229 12.349 19.3144 11.5445C16.3173 10.393 15.0145 9.41376 15.0145 6.93716C15.0145 4.05027 17.2729 2.5058 20.1387 2.5058C22.0972 2.5058 23.3553 2.87394 24.6618 3.50611L24.0941 6.63595C22.7467 5.8538 21.3374 5.41996 20.1871 5.41996C19.0554 5.41996 18.5125 5.8947 18.5125 6.58885C18.5125 7.35364 18.924 7.72303 20.792 8.43948C24.0519 9.6344 25.3572 10.7636 25.3572 13.1522C25.3572 16.4122 22.9636 17.8464 19.9875 17.8464Z" fill="black"/>
<path d="M34.5223 12.1141H35.7196C39.2387 12.1141 41.5777 10.4271 41.5777 7.1398C41.5777 3.97897 39.4072 2.39856 35.8671 2.39856H30.9177V17.7503H34.5223V12.1141ZM34.4799 5.11688H35.6563C37.2577 5.11688 38.0795 5.81226 38.0795 7.20303C38.0795 8.69915 37.1945 9.39454 35.593 9.39454H34.4799V5.11688Z" fill="black"/>
<path d="M48.1492 17.2093V16.4544C47.3063 17.3382 46.2527 17.4212 45.0504 17.4212C43.4068 17.4212 42.2478 16.4296 42.2478 14.5542C42.2478 12.1308 44.1021 10.9929 48.1492 10.6347V10.4451C48.1492 9.53897 47.6435 9.13859 46.5899 9.13859C45.4309 9.13859 44.355 9.43361 43.2605 9.91827L42.8812 7.51603C44.0612 7.03013 45.3875 6.71529 47.0745 6.71529C49.9193 6.71529 51.3311 7.66354 51.3311 10.2976V17.2093H48.1492ZM48.1493 12.6576C46.3284 12.6576 45.3876 13.2266 45.3876 14.1327C45.3876 14.7859 45.7892 15.1442 46.3792 15.1442C46.9903 15.1442 47.5803 14.8702 48.1493 14.3645V12.6576Z" fill="black"/>
<path d="M61.8898 6.83329H64.4668L64.3317 6.87543C64.1061 6.95105 64.0218 6.99071 63.8619 7.09235C63.1294 7.55346 62.4154 8.33313 62.1464 9.1252L59.0786 17.6508C57.9258 20.3493 56.8871 21.3719 54.6324 21.3719C54.015 21.3719 53.7393 21.3104 53.4519 21.2463L53.4313 21.2417L53.0309 18.6238C53.368 18.7329 53.6841 18.7973 54.2952 18.7973C55.0117 18.7973 55.6438 18.516 55.981 17.7809L56.1049 17.4549L57.7721 13.0893L59.2385 8.73846C59.6215 7.60057 60.6887 6.83329 61.8898 6.83329Z" fill="black"/>
<path d="M55.4669 6.83328H52.0532L55.804 17.0583L57.4687 12.8054L55.4669 6.83328Z" fill="#006DE1"/>
<path d="M67.077 17.0584C67.077 18.1033 66.2304 18.9499 65.1855 18.9499C64.1418 18.9499 63.2952 18.1033 63.2952 17.0584C63.2952 16.0134 64.1418 15.1668 65.1855 15.1668C66.2304 15.1668 67.077 16.0134 67.077 17.0584Z" fill="#006DE1"/>
</svg>
