<svg width="99" height="96" viewBox="0 0 99 96" fill="none" xmlns="http://www.w3.org/2000/svg">
<path d="M84.1667 26.1042H73.0418V18.6875C73.0418 14.5713 69.7413 11.2708 65.6251 11.2708H43.3751C39.2588 11.2708 35.9584 14.5713 35.9584 18.6875V26.1042H24.8334C20.7172 26.1042 17.4167 29.4046 17.4167 33.5208V74.3125C17.4167 78.4288 20.7172 81.7292 24.8334 81.7292H84.1667C88.283 81.7292 91.5834 78.4288 91.5834 74.3125V33.5208C91.5834 29.4046 88.283 26.1042 84.1667 26.1042ZM43.3751 18.6875H65.6251V26.1042H43.3751V18.6875ZM84.1667 74.3125H24.8334V66.8958H84.1667V74.3125ZM84.1667 55.7708H24.8334V33.5208H35.9584V40.9375H43.3751V33.5208H65.6251V40.9375H73.0418V33.5208H84.1667V55.7708Z" fill="#E0E0E0"/>
<path d="M72.0897 14.4233C71.2799 11.28 70.2589 8.93095 68.6393 6.67769C65.4707 2.312 56.0352 -2.0537 48.4304 1.04454C39.0653 4.84692 35.615 12.5925 35.8262 26.1121H47.515C47.4446 19.2115 47.5855 13.3671 53.0074 11.8884C54.6973 11.4659 56.528 11.6771 57.7955 12.4517C60.5417 14.1416 60.8938 17.4511 61.5275 21.3239C61.8092 23.0843 61.8092 24.48 61.8092 25.9008C62.4429 26.4641 71.3855 26.1121 73.0755 26.1121C74.0613 22.7322 73.005 17.0286 72.0897 14.4233Z" fill="#060606"/>
<path d="M37.5803 53.2213C35.8904 52.5172 32.9329 52.8693 30.6797 52.8693H16.1743C15.12 53.04 14.2731 53.2213 13.4281 53.7846C11.2453 55.4042 11.6678 59.4178 13.7802 60.6853C15.3997 61.6711 18.6388 61.319 21.1737 61.319H32.44C34.0596 61.319 36.172 61.5302 37.369 61.0373C38.5661 60.5444 39.6223 59.4178 39.9743 58.0095C40.6081 55.8267 39.059 53.8551 37.5803 53.2213ZM28.0039 66.8817H4.48552C3.12 66.8817 2.44344 67.1634 1.59846 67.7267C-1.00687 69.6279 -0.232278 73.9936 2.51389 75.1202C4.41508 75.8948 8.14706 75.4019 10.5412 75.4019H26.1027C28.2856 75.4019 31.3838 75.8244 33.2146 75.1906C34.5524 74.7681 35.6791 73.4303 36.0311 72.022C37.1578 67.093 32.2992 66.8817 28.0039 66.8817Z" fill="#060606"/>
</svg>
