<svg width="180" height="120" viewBox="0 0 180 120" fill="none" xmlns="http://www.w3.org/2000/svg">
<rect width="180" height="120" rx="12" fill="#56CCF2"/>
<path d="M20.68 30.21C23.245 30.21 24.76 28.665 24.76 26.85C24.76 25.245 23.875 24.39 22.525 23.835L21.07 23.22C20.125 22.845 19.33 22.56 19.33 21.765C19.33 21.03 19.96 20.595 20.935 20.595C21.85 20.595 22.585 20.925 23.29 21.51L24.415 20.115C23.515 19.2 22.225 18.69 20.935 18.69C18.685 18.69 17.095 20.085 17.095 21.9C17.095 23.52 18.22 24.42 19.345 24.885L20.83 25.515C21.82 25.935 22.495 26.19 22.495 27.015C22.495 27.795 21.88 28.29 20.725 28.29C19.75 28.29 18.7 27.795 17.905 27.06L16.63 28.59C17.71 29.625 19.195 30.21 20.68 30.21ZM26.5454 30H28.7354V24.225C29.3654 23.61 29.8004 23.28 30.4904 23.28C31.3154 23.28 31.6754 23.745 31.6754 25.035V30H33.8804V24.765C33.8804 22.65 33.1004 21.39 31.2854 21.39C30.1454 21.39 29.3204 21.99 28.6454 22.62L28.7354 21.045V18.03H26.5454V30ZM36.1401 30H38.3301V21.6H36.1401V30ZM37.2501 20.25C38.0001 20.25 38.5551 19.74 38.5551 19.05C38.5551 18.33 38.0001 17.85 37.2501 17.85C36.4851 17.85 35.9301 18.33 35.9301 19.05C35.9301 19.74 36.4851 20.25 37.2501 20.25ZM40.6957 30H42.8857V24.225C43.5157 23.61 43.9507 23.28 44.6407 23.28C45.4657 23.28 45.8257 23.745 45.8257 25.035V30H48.0307V24.765C48.0307 22.65 47.2507 21.39 45.4357 21.39C44.2957 21.39 43.4407 21.99 42.7057 22.71H42.6457L42.4957 21.6H40.6957V30ZM50.3051 30H52.4951V24.225C53.1251 23.61 53.5601 23.28 54.2501 23.28C55.0751 23.28 55.4351 23.745 55.4351 25.035V30H57.6401V24.765C57.6401 22.65 56.8601 21.39 55.0451 21.39C53.9051 21.39 53.0801 21.99 52.4051 22.62L52.4951 21.045V18.03H50.3051V30ZM61.9698 30.21C62.9298 30.21 63.7698 29.73 64.5048 29.1H64.5498L64.7148 30H66.5148V25.095C66.5148 22.665 65.4198 21.39 63.2898 21.39C61.9698 21.39 60.7698 21.885 59.7798 22.5L60.5748 23.955C61.3548 23.505 62.1048 23.16 62.8848 23.16C63.9198 23.16 64.2798 23.79 64.3098 24.615C60.9348 24.975 59.4798 25.92 59.4798 27.72C59.4798 29.145 60.4698 30.21 61.9698 30.21ZM62.6898 28.485C62.0448 28.485 61.5798 28.2 61.5798 27.54C61.5798 26.79 62.2698 26.235 64.3098 25.965V27.66C63.7848 28.185 63.3198 28.485 62.6898 28.485ZM68.7621 30H70.9521V24.225C71.5821 23.61 72.0171 23.28 72.7071 23.28C73.5321 23.28 73.8921 23.745 73.8921 25.035V30H76.0971V24.765C76.0971 22.65 75.3171 21.39 73.5021 21.39C72.3621 21.39 71.5071 21.99 70.7721 22.71H70.7121L70.5621 21.6H68.7621V30ZM81.95 30H84.17V26.055H85.655C88.04 26.055 89.945 24.915 89.945 22.38C89.945 19.755 88.055 18.9 85.595 18.9H81.95V30ZM84.17 24.3V20.655H85.43C86.96 20.655 87.77 21.09 87.77 22.38C87.77 23.655 87.035 24.3 85.505 24.3H84.17ZM91.7748 30H93.9648V24.99C94.4448 23.775 95.2398 23.34 95.8998 23.34C96.2448 23.34 96.4848 23.385 96.7698 23.475L97.1598 21.57C96.9048 21.465 96.6348 21.39 96.1698 21.39C95.2998 21.39 94.3998 21.99 93.7848 23.085H93.7248L93.5748 21.6H91.7748V30ZM98.308 30H100.498V21.6H98.308V30ZM99.418 20.25C100.168 20.25 100.723 19.74 100.723 19.05C100.723 18.33 100.168 17.85 99.418 17.85C98.653 17.85 98.098 18.33 98.098 19.05C98.098 19.74 98.653 20.25 99.418 20.25ZM102.864 30H105.054V24.225C105.654 23.595 106.194 23.28 106.674 23.28C107.469 23.28 107.844 23.745 107.844 25.035V30H110.049V24.225C110.649 23.595 111.189 23.28 111.669 23.28C112.464 23.28 112.839 23.745 112.839 25.035V30H115.044V24.765C115.044 22.65 114.219 21.39 112.434 21.39C111.339 21.39 110.529 22.05 109.764 22.86C109.359 21.93 108.654 21.39 107.454 21.39C106.359 21.39 105.579 21.99 104.874 22.725H104.814L104.664 21.6H102.864V30ZM120.967 30.21C122.017 30.21 123.082 29.85 123.907 29.28L123.157 27.93C122.557 28.305 121.957 28.515 121.267 28.515C120.022 28.515 119.122 27.795 118.942 26.415H124.117C124.177 26.22 124.222 25.815 124.222 25.41C124.222 23.085 123.022 21.39 120.712 21.39C118.702 21.39 116.797 23.085 116.797 25.815C116.797 28.575 118.627 30.21 120.967 30.21ZM118.912 24.96C119.077 23.73 119.857 23.1 120.742 23.1C121.822 23.1 122.332 23.82 122.332 24.96H118.912Z" fill="#1E2530"/>
<rect y="81" width="180" height="39" fill="white" fill-opacity="0.3"/>
<path d="M26.335 40.275H24.996V48.855H26.335V40.275ZM23.774 45.943C21.967 45.319 20.94 43.746 20.94 42.082V40.912H19.575V42.082C19.575 43.798 18.548 45.475 16.702 46.151L17.391 47.23C18.769 46.71 19.744 45.644 20.277 44.331C20.784 45.553 21.746 46.515 23.085 47.009L23.774 45.943ZM20.017 50.688V48.049H18.665V51.78H26.673V50.688H20.017ZM35.564 41.601H32.769V40.249H31.43V41.601H28.635V42.667H35.564V41.601ZM30.533 45.436C30.533 44.695 31.17 44.253 32.093 44.253C33.029 44.253 33.666 44.695 33.666 45.436C33.666 46.177 33.029 46.619 32.093 46.619C31.17 46.619 30.533 46.177 30.533 45.436ZM34.94 45.436C34.94 44.11 33.783 43.213 32.093 43.213C30.416 43.213 29.246 44.11 29.246 45.436C29.246 46.775 30.416 47.659 32.093 47.659C33.783 47.659 34.94 46.775 34.94 45.436ZM31.703 48.387H30.351V51.78H38.255V50.688H31.703V48.387ZM37.787 44.006V40.262H36.448V49.063H37.787V45.111H39.451V44.006H37.787ZM41.296 41.432V42.524H45.313C45.261 43.174 45.157 43.785 45.001 44.357L40.698 44.63L40.88 45.787L44.598 45.423C43.909 46.866 42.674 48.088 40.62 49.115L41.348 50.155C45.612 48.01 46.639 44.942 46.639 41.432H41.296ZM51.449 44.89H49.668V40.249H48.329V51.988H49.668V46.008H51.449V44.89ZM61.978 45.8H55.179V42.381H61.887V41.289H53.84V46.879H61.978V45.8ZM52.54 49.388V50.493H63.187V49.388H52.54Z" fill="#1E2530"/>
</svg>
