<svg width="24" height="24" viewBox="0 0 24 24" fill="none" xmlns="http://www.w3.org/2000/svg">
<path fill-rule="evenodd" clip-rule="evenodd" d="M12.5215 4.15C12.2013 3.95438 11.7987 3.95438 11.4785 4.15L4.47855 8.43C4.1813 8.61166 4 8.93163 4 9.28V19C4 19.5523 4.44772 20 5 20H7.66667C7.85076 20 8 19.8508 8 19.6667V16C8 13.7909 9.79086 12 12 12C14.2091 12 16 13.7909 16 16V19.6667C16 19.8508 16.1492 20 16.3333 20H19C19.5523 20 20 19.5523 20 19V9.28C20 8.93163 19.8187 8.61166 19.5215 8.43L12.5215 4.15ZM10.4356 2.43991C11.396 1.85304 12.604 1.85304 13.5644 2.43991L20.5644 6.72C21.4561 7.26497 22 8.2349 22 9.28V19C22 20.6569 20.6569 22 19 22H16.3333C15.0447 22 14 20.9553 14 19.6667V16C14 14.8954 13.1046 14 12 14C10.8954 14 10 14.8954 10 16V19.6667C10 20.9553 8.95533 22 7.66667 22H5C3.34315 22 2 20.6569 2 19V9.28C2 8.2349 2.54389 7.26497 3.43565 6.72L10.4356 2.43991Z" fill="#C0C4CD"/>
</svg>
