<svg width="80" height="91" viewBox="0 0 80 91" fill="none" xmlns="http://www.w3.org/2000/svg">
<path d="M69.3253 73.0063H64.944L63.3911 71.5089C68.8262 65.1864 72.0983 56.9783 72.0983 48.0492C72.0983 28.1389 55.9594 12 36.0492 12C16.1389 12 0 28.1389 0 48.0492C0 67.9594 16.1389 84.0983 36.0492 84.0983C44.9783 84.0983 53.1864 80.8262 59.5089 75.3911L61.0063 76.944V81.3253L71 91L79.2636 82.7364L69.3253 73.0063ZM36.0492 73.0063C22.2396 73.0063 11.0921 61.8588 11.0921 48.0492C11.0921 34.2396 22.2396 23.0921 36.0492 23.0921C49.8588 23.0921 61.0063 34.2396 61.0063 48.0492C61.0063 61.8588 49.8588 73.0063 36.0492 73.0063Z" fill="#E0E0E0"/>
<path d="M48.1083 41.9383C46.3435 42.4342 45.6862 43.2595 45.1908 44.9109C44.1999 48.1037 47.3927 50.8011 50.4754 49.8653C54.9344 48.5992 53.6132 41.7731 48.1083 41.9383ZM21.0795 42.1034C19.645 42.4342 18.7124 43.1493 18.217 44.7457C17.2261 47.9936 19.7584 50.9662 23.1714 50.0304C27.3 48.8744 27.7955 41.8832 21.0795 42.1034ZM35.1169 50.1405C33.4071 50.6915 31.814 51.1314 31.3736 53.0581C30.713 56.0858 33.9058 55.9757 36.4381 55.9757C37.6491 55.9757 38.912 55.9211 39.6309 55.5353C40.1814 55.1499 40.4016 54.5444 40.5116 53.7187C40.952 51.1314 37.7592 50.0304 35.1169 50.1405Z" fill="#060606"/>
<path d="M48.6534 2.5297C49.9782 2.46084 50.9941 2.81497 51.7958 4.05158C52.1237 4.78632 52.2852 5.59304 52.3238 6.19781C52.649 8.51119 53.093 11.1983 49.9417 11.5816C45.8633 12.1051 43.7308 3.93817 48.6534 2.5297ZM58.3573 2.32851C58.7497 1.7926 59.3724 1.33782 60.2551 1.0576C65.975 0.212221 63.7143 6.94308 62.0861 9.88585C61.5109 11.4568 60.6895 14.1856 57.8882 13.738C56.6417 13.5167 55.0245 12.1276 55.1411 10.2396C55.2329 9.0792 57.6822 3.26268 58.3573 2.32851ZM68.2024 12.7694C69.0524 12.6764 69.7775 12.6888 70.5258 13.2739C75.2736 17.1141 66.1106 22.0798 63.496 20.2875C62.9 19.8597 62.2001 19.1049 62.028 18.0798C61.681 15.0534 64.8742 13.7232 68.2024 12.7694Z" fill="#060606"/>
</svg>
