<svg width="24" height="24" viewBox="0 0 24 24" fill="none" xmlns="http://www.w3.org/2000/svg">
<path d="M7 9V7C7 4.23858 9.23858 2 12 2C14.7614 2 17 4.23858 17 7V9H20C21.278 9 22.2249 10.1822 21.95 11.4302L20.1673 19.6454C19.8644 21.0206 18.6282 22 17.22 22H6.78701C5.37883 22 4.16018 21.0206 3.85725 19.6454L2.04763 11.4302C1.7727 10.1822 2.72282 9 4.0008 9H7ZM9 7V9H15V7C15 5.34315 13.6569 4 12 4C10.3431 4 9 5.34315 9 7ZM4.0008 11L5.81043 19.2151C5.9114 19.6735 6.31762 20 6.78701 20H17.22C17.6894 20 18.089 19.6735 18.19 19.2151L20 11H4.0008Z" fill="#1E2530"/>
</svg>
