<svg width="24" height="24" viewBox="0 0 24 24" fill="none" xmlns="http://www.w3.org/2000/svg">
<path d="M15.643 11.7678C17.0759 10.6713 18 8.94359 18 7C18 3.68629 15.3137 1 12 1C8.68629 1 6 3.68629 6 7C6 8.94359 6.92413 10.6713 8.35697 11.7678C5.20134 13.1664 3 16.3261 3 20V22C3 22.5523 3.44772 23 4 23C4.55228 23 5 22.5523 5 22V20C5 16.134 8.13401 13 12 13C15.866 13 19 16.134 19 20V22C19 22.5523 19.4477 23 20 23C20.5523 23 21 22.5523 21 22V20C21 16.3261 18.7987 13.1664 15.643 11.7678ZM16 7C16 9.20914 14.2091 11 12 11C9.79086 11 8 9.20914 8 7C8 4.79086 9.79086 3 12 3C14.2091 3 16 4.79086 16 7Z" fill="#C0C4CD"/>
</svg>
