<svg width="24" height="24" viewBox="0 0 24 24" fill="none" xmlns="http://www.w3.org/2000/svg">
<path d="M11.9778 13.384L4.68538 20.6765C4.29485 21.067 3.66169 21.067 3.27116 20.6765C2.88064 20.286 2.88064 19.6528 3.27116 19.2623L10.5488 11.9846L3.27116 4.70692C2.88064 4.3164 2.88064 3.68323 3.27116 3.29271C3.66169 2.90219 4.29485 2.90219 4.68538 3.29271L11.9795 10.5869L19.272 3.29442C19.6625 2.9039 20.2957 2.90389 20.6862 3.29442C21.0767 3.68494 21.0767 4.31811 20.6862 4.70863L13.4085 11.9863L20.6862 19.264C21.0767 19.6545 21.0767 20.2877 20.6862 20.6782C20.2957 21.0687 19.6625 21.0687 19.272 20.6782L11.9778 13.384Z" fill="#1E2530"/>
</svg>
